inDegrees=yes
name=ik_Xsens_4_quaternion - Copie
DataType=double
version=3
OpenSimVersion=4.4-2022-07-23-0e9fedc
endheader
time	r_shoulder_elev	r_elbow_flex
23.96666666666667	6.696387529928743	3.560978176312145
23.98333333333333	6.723210327699942	3.534134776716409
24	6.746495471203024	3.541504013018959
24.01666666666667	6.760539228607011	3.568770171047412
24.03333333333333	6.75703247820035	3.602428749497812
24.05	6.735726092665361	3.608300217375033
24.06666666666667	6.708254534012311	3.62273108916773
24.08333333333333	6.686209698386688	3.645874544293342
24.1	6.659634327871419	3.667875532926931
24.11666666666667	6.641830236894162	3.688970733835863
24.13333333333333	6.595166515254824	3.724344882164322
24.15	6.577427156525298	3.740451238936202
24.16666666666667	6.545264455318895	3.775162915900598
24.18333333333333	6.494214321910701	3.833905371358328
24.2	6.433087865557122	3.911554931484224
24.21666666666667	6.374641701556649	3.986776430921799
24.23333333333333	6.308991915785223	4.041820129062594
24.25	6.261692033737665	4.079791012083478
24.26666666666667	6.259064360506803	4.087963162897065
24.28333333333333	6.27097676331636	4.081908828803635
24.3	6.260948299607497	4.08298342458165
24.31666666666667	6.272931317753422	4.055515665836162
24.33333333333333	6.281575348029791	4.032350357118739
24.35	6.319633814129467	3.982456956911399
24.36666666666667	6.36060372766159	3.949482064857941
24.38333333333333	6.380069345732919	3.935757991809114
24.4	6.397538753304187	3.931523514426912
24.41666666666667	6.422704545634853	3.927322259255198
24.43333333333333	6.441389446353303	3.931348735360493
24.45	6.457756548291771	3.94140073349549
24.46666666666667	6.473227507143934	3.951048676824693
24.48333333333333	6.485295862973461	3.935445266333782
24.5	6.51185012146768	3.898425689978529
24.51666666666667	6.553866676665081	3.851559868978781
24.53333333333333	6.588722408466759	3.820445788042714
24.55	6.606641180064045	3.805528456333788
24.56666666666667	6.611372949297472	3.795064819086198
24.58333333333333	6.613667719526195	3.782429207964691
24.6	6.598813660194047	3.786264899733856
24.61666666666667	6.555983229288815	3.812967221666035
24.63333333333333	6.487501976999209	3.874069983316421
24.65	6.40180166993326	3.961867189866875
24.66666666666667	6.272906256325115	4.066874225240259
24.68333333333333	6.151953685566479	4.163001654203868
24.7	6.11655973557115	4.190083862710098
24.71666666666667	6.092567908634257	4.206006637286603
24.73333333333333	6.087754774511446	4.22574096291276
24.75	6.082626869140233	4.231029381481894
24.76666666666667	6.0740626559207	4.213166781368653
24.78333333333333	6.064041751417678	4.207573349966188
24.8	6.039365534773135	4.204630272132539
24.81666666666667	6.034899460103116	4.185703931577788
24.83333333333333	6.031962826890797	4.175843787496957
24.85	6.032709486659387	4.160148132458108
24.86666666666667	6.038453319021346	4.14836366043542
24.88333333333333	6.035943696359444	4.154188836100475
24.9	6.028697934099494	4.161869231792475
24.91666666666667	6.023133133868115	4.174528222051637
24.93333333333333	6.036305865583987	4.164578570551194
24.95	6.049567838258525	4.128654375599295
24.96666666666667	6.058022809282274	4.089134153560527
24.98333333333333	6.054623266692198	4.056397798660295
25	6.053393536709556	4.046013787628915
25.01666666666667	6.061858487378986	4.041234252628046
25.03333333333333	6.077208491193486	4.03394462753185
25.05	6.099341719676533	4.010356422561516
25.06666666666667	6.116828907840638	3.983398466306768
25.08333333333333	6.124696366941029	3.966973549353094
25.1	6.10560824610211	3.95576858346245
25.11666666666667	6.100953338659679	3.968205492244538
25.13333333333333	6.116386680310719	3.949765005561102
25.15	6.139479114019951	3.940936185982424
25.16666666666667	6.157248054504538	3.937435805365456
25.18333333333333	6.176867040882309	3.926646974674556
25.2	6.203856230298812	3.906781354323373
25.21666666666667	6.252770725007399	3.843795159361817
25.23333333333333	6.322235702519508	3.774307749970025
25.25	6.434235183501424	3.669614014005409
25.26666666666667	6.58638268715841	3.514537405077457
25.28333333333333	6.751786189318497	3.34735779952449
25.3	6.998976993532413	3.090897478694261
25.31666666666667	7.195608781042182	2.889676741922934
25.33333333333333	7.336542898470043	2.763365259131705
25.35	7.49272539132201	2.612973314875336
25.36666666666667	7.709467662981752	2.401068156831128
25.38333333333333	7.915592656017693	2.182493898184763
25.4	7.944282555554445	2.148636227046123
25.41666666666667	7.990754122228353	2.113284656523555
25.43333333333333	8.010617184953571	2.107427922842977
25.45	8.013183180429264	2.115348707325003
25.46666666666667	7.985173546163796	2.146960770463755
25.48333333333333	7.956710412259701	2.17442373398554
25.5	7.876713886737359	2.247511896322725
25.51666666666667	7.716008983352363	2.404004104333362
25.53333333333333	7.499209441830147	2.610289523640746
25.55	7.047827227984346	3.056229770941583
25.56666666666667	6.672483071280638	3.421297372930652
25.58333333333333	6.406746693361524	3.686336463443483
25.6	6.180883670362173	3.913302045678579
25.61666666666667	5.992567091359829	4.105561592023087
25.63333333333333	5.823308599875941	4.268860266312679
25.65	5.687943956019545	4.412860607289653
25.66666666666667	5.533089767593613	4.580987766780956
25.68333333333333	5.38206934971856	4.744990124125369
25.7	5.130509625426273	4.993818827774843
25.71666666666667	4.902881250611838	5.218203502191969
25.73333333333333	4.707870538684764	5.40984537665944
25.75	4.429251961963971	5.688950993975686
25.76666666666667	4.242214588211756	5.88296941963359
25.78333333333333	4.113385301191329	6.014432027910151
25.8	3.970861783594474	6.133926110664473
25.81666666666667	3.874047469732	6.187637951002168
25.83333333333333	3.733094356637257	6.274051426396494
25.85	3.584612177861498	6.381526824673927
25.86666666666667	3.473419469846031	6.409222924151905
25.88333333333333	3.356665222536818	6.466351788754672
25.9	3.311460507605971	6.49990510862216
25.91666666666667	3.305744539412427	6.510266097001233
25.93333333333333	3.297487441738504	6.498917225872503
25.95	3.296748795083092	6.480513195019056
25.96666666666667	3.303157069362497	6.444445719701615
25.98333333333333	3.32587863247021	6.404563185210145
26	3.358673480745703	6.374611974411634
26.01666666666667	3.387449589324733	6.362655218072777
26.03333333333333	3.407185111902616	6.319549287910473
26.05	3.410218468144536	6.235844970977372
26.06666666666667	3.391359888642167	6.163080538563574
26.08333333333333	3.390143506722385	6.040487628260432
26.1	3.391608535362063	5.904835744265655
26.11666666666667	3.40260331226407	5.801295958516314
26.13333333333333	3.426256657503811	5.677761495630166
26.15	3.462330295276721	5.528972379415546
26.16666666666667	3.497273262831559	5.252198739194832
26.18333333333333	3.548518771925623	4.991048342890984
26.2	3.617359493641614	4.792456849692365
26.21666666666667	3.685079000620084	4.547656911593912
26.23333333333333	3.73783195967617	4.251476496793418
26.25	3.785041239523096	3.934651734617058
26.26666666666667	3.833711206536537	3.708207819538239
26.28333333333333	3.853561793684509	3.630325889433904
26.3	3.870862182406483	3.615031426467357
26.31666666666667	3.889051287366447	3.62595420397579
26.33333333333333	3.911157041359644	3.64108328175522
26.35	3.93162263938096	3.636917275872482
26.36666666666667	3.944094256699586	3.612716724269491
26.38333333333333	3.95633706023566	3.595579609365668
26.4	3.965280831068886	3.569856427114539
26.41666666666667	3.967556820310314	3.545724039268663
26.43333333333333	3.969449548396856	3.525686375924197
26.45	3.971746826507764	3.51957657675986
26.46666666666667	3.976549822846749	3.482307762977649
26.48333333333333	3.98091972936358	3.415683002347982
26.5	3.986479424717072	3.333459620383795
26.51666666666667	3.988037617923576	3.286074376141213
26.53333333333333	3.989431581357753	3.206513345735598
26.55	3.991997648608812	3.019267220283596
26.56666666666667	3.991321184799906	2.836232395657635
26.58333333333333	3.992760141253083	2.740045112468156
26.6	3.960290712362578	2.71939270765613
26.61666666666667	3.906959440498182	2.632089813539847
26.63333333333333	3.918368696976004	2.624560772601869
